<svg width="50" height="50" viewBox="-4 -4 40 40" xmlns="http://www.w3.org/2000/svg">
    <path transform="rotate(270 16 16)" fill="#000000" d="M21,17 L10.414,17 L14.536,21.12 C14.926,21.51 14.926,22.15 14.536,22.54 C14.145,22.93 13.512,22.93 13.121,22.54 L7.464,16.88 C7.225,16.64 7.15,16.31 7.205,16 C7.15,15.69 7.225,15.36 7.464,15.12 L13.121,9.46 C13.512,9.07 14.145,9.07 14.536,9.46 C14.926,9.86 14.926,10.49 14.536,10.88 L10.414,15 L21,15 C21.552,15 22,15.45 22,16 C22,16.55 21.552,17 21,17 Z M14,0 C5.164,0 -2,7.16 -2,16 C-2,24.84 5.164,32 14,32 C22.836,32 30,24.84 30,16 C30,7.16 22.836,0 14,0 Z"/>
</svg>